<?xml version="1.0" encoding="utf-8"?>
<!-- Generator: Adobe Illustrator 16.0.0, SVG Export Plug-In . SVG Version: 6.00 Build 0)  -->
<!DOCTYPE svg PUBLIC "-//W3C//DTD SVG 1.1//EN" "http://www.w3.org/Graphics/SVG/1.1/DTD/svg11.dtd">
<svg version="1.1" id="Layer_1" xmlns="http://www.w3.org/2000/svg" xmlns:xlink="http://www.w3.org/1999/xlink" x="0px" y="0px"
	 width="76px" height="40px" viewBox="0 0 76 40" enable-background="new 0 0 76 40" xml:space="preserve">
<path fill="#FFFFFF" d="M12.666,24.688c-0.601,0-1.071,0.421-1.071,1.033c0,0.615,0.473,1.033,1.071,1.033
	c0.598,0,1.071-0.422,1.071-1.033C13.737,25.109,13.267,24.688,12.666,24.688z M12.666,26.459c-0.428,0-0.746-0.312-0.746-0.737
	c0-0.422,0.315-0.738,0.746-0.738c0.425,0,0.746,0.322,0.746,0.738C13.412,26.139,13.089,26.459,12.666,26.459z"/>
<polygon fill="#FFFFFF" points="23.09,21.073 17.875,21.073 18.468,12.009 15.081,21.073 10.238,21.073 17.922,0.585 23.076,0.585 
	22.48,9.774 25.931,0.585 30.774,0.585 "/>
<polygon fill="#FFFFFF" points="23.719,21.073 31.403,0.585 36.246,0.585 28.562,21.073 "/>
<path fill="#FFFFFF" d="M9.68,14.011C2.912,21.958-3.472,32.532,2.167,37.403c5.464,4.717,12.293,1.924,16.95,0.062
	c4.657-1.861,56.126-24.214,56.126-24.214c0.498-0.248,0.404-0.559-0.217-0.403c-0.25,0.062-56.034,15.18-56.034,15.18
	C11.915,30.015,3.844,25.684,9.68,14.011z"/>
<path fill="#FFFFFF" d="M12.849,25.795c0.15-0.007,0.268-0.084,0.268-0.293c0-0.268-0.175-0.335-0.468-0.335h-0.42v1.112h0.28
	v-0.475h0.047l0.255,0.475h0.323L12.849,25.795z M12.668,25.616h-0.161v-0.259h0.135c0.083,0,0.178,0.01,0.178,0.118
	C12.821,25.591,12.766,25.616,12.668,25.616z"/>
<path fill="#FFFFFF" d="M61.349,0.522c-0.601,0-1.072,0.421-1.072,1.034c0,0.613,0.474,1.031,1.072,1.031s1.071-0.42,1.071-1.031
	C62.42,0.943,61.948,0.522,61.349,0.522z M61.349,2.292c-0.429,0-0.746-0.313-0.746-0.736c0-0.423,0.314-0.739,0.746-0.739
	c0.425,0,0.746,0.32,0.746,0.739C62.095,1.972,61.771,2.292,61.349,2.292z"/>
<path fill="#FFFFFF" d="M61.531,1.629C61.681,1.622,61.8,1.544,61.8,1.336C61.8,1.068,61.624,1,61.331,1h-0.42v1.112h0.279V1.639
	h0.048l0.256,0.473h0.322L61.531,1.629z M61.352,1.449H61.19V1.191h0.136c0.082,0,0.178,0.01,0.178,0.118
	C61.504,1.424,61.448,1.449,61.352,1.449z"/>
<path fill="#FFFFFF" d="M58.157,4l1.301-3.415h-9.703h-0.044h-5.029l-5.074,6.147l2.343-6.147h-4.905l-7.622,20.488h4.843
	l3.254-8.568l0.223,8.568l14.86-0.032l1.415-3.94h-5.649l1.854-4.967h4.657l1.433-3.818h-4.656L53.252,4H58.157L58.157,4z
	 M42.547,19.708l-0.31-10.68L49.56,0.99L42.547,19.708z"/>
</svg>
