<?xml version="1.0" encoding="utf-8"?>
<!-- Generator: Adobe Illustrator 16.0.0, SVG Export Plug-In . SVG Version: 6.00 Build 0)  -->
<!DOCTYPE svg PUBLIC "-//W3C//DTD SVG 1.1//EN" "http://www.w3.org/Graphics/SVG/1.1/DTD/svg11.dtd">
<svg version="1.1" id="Layer_1" xmlns="http://www.w3.org/2000/svg" xmlns:xlink="http://www.w3.org/1999/xlink" x="0px" y="0px"
	 width="150px" height="40px" viewBox="0 0 150 40" enable-background="new 0 0 150 40" xml:space="preserve">
<g>
	<path fill="#FFFFFF" d="M29.764,17.052H17.507c-0.317,0-0.573,0.257-0.573,0.573v5.993c0,0.316,0.256,0.573,0.573,0.573h4.781
		v7.446c0,0-1.073,0.365-4.042,0.365c-3.502,0-8.394-1.279-8.394-12.036c0-10.76,5.093-12.176,9.876-12.176
		c4.14,0,5.923,0.729,7.058,1.081c0.357,0.109,0.687-0.247,0.687-0.563l1.367-5.79c0-0.147-0.05-0.326-0.219-0.448
		C28.16,1.743,25.35,0.17,18.247,0.17c-8.183,0-16.576,3.481-16.576,20.216c0,16.736,9.609,19.229,17.707,19.229
		c6.706,0,10.773-2.864,10.773-2.864c0.168-0.094,0.186-0.328,0.186-0.435V17.625C30.337,17.31,30.08,17.052,29.764,17.052z"/>
	<path fill="#FFFFFF" d="M92.93,2.175c0-0.319-0.252-0.576-0.567-0.576H85.46c-0.314,0-0.569,0.257-0.569,0.576
		c0,0.001,0.001,13.337,0.001,13.337H74.133V2.175c0-0.319-0.254-0.576-0.57-0.576h-6.9c-0.314,0-0.57,0.257-0.57,0.576v36.113
		c0,0.319,0.256,0.577,0.57,0.577h6.9c0.316,0,0.57-0.259,0.57-0.577V22.842h10.758c0,0-0.02,15.445-0.02,15.446
		c0,0.319,0.255,0.577,0.572,0.577h6.917c0.315,0,0.566-0.259,0.567-0.577L92.93,2.175L92.93,2.175z"/>
	<g>
		<g>
			<path fill="#FFFFFF" d="M42.788,6.914c0-2.485-1.993-4.494-4.451-4.494c-2.456,0-4.449,2.008-4.449,4.494
				c0,2.482,1.994,4.496,4.449,4.496C40.795,11.409,42.788,9.396,42.788,6.914z"/>
			<path fill="#FFFFFF" d="M42.293,30.669c0-0.924,0-16.669,0-16.669c0-0.316-0.255-0.575-0.57-0.575h-6.88
				c-0.315,0-0.598,0.326-0.598,0.642c0,0,0,20.059,0,23.884c0,0.701,0.438,0.91,1.003,0.91c0,0,2.937,0,6.198,0
				c0.68,0,0.847-0.335,0.847-0.923C42.293,36.659,42.293,31.644,42.293,30.669z"/>
		</g>
	</g>
	<path fill="#FFFFFF" d="M119.158,13.479h-6.848c-0.314,0-0.569,0.26-0.569,0.578v17.706c0,0-1.74,1.274-4.21,1.274
		s-3.125-1.12-3.125-3.538c0-2.422,0-15.442,0-15.442c0-0.318-0.255-0.578-0.569-0.578h-6.949c-0.315,0-0.571,0.26-0.571,0.578
		c0,0,0,9.43,0,16.61c0,7.183,4.003,8.939,9.509,8.939c4.517,0,8.16-2.495,8.16-2.495s0.173,1.315,0.252,1.47
		c0.078,0.157,0.282,0.313,0.503,0.313l4.421-0.02c0.315,0,0.573-0.259,0.573-0.577l-0.003-24.241
		C119.731,13.738,119.476,13.479,119.158,13.479z"/>
	<path fill="#FFFFFF" d="M137.877,12.668c-3.89,0-6.535,1.736-6.535,1.736V2.175c0-0.319-0.255-0.576-0.57-0.576h-6.92
		c-0.313,0-0.57,0.257-0.57,0.576v36.113c0,0.319,0.257,0.577,0.571,0.577c0.001,0,4.8,0,4.801,0c0.216,0,0.381-0.11,0.502-0.306
		c0.118-0.195,0.291-1.666,0.291-1.666s2.829,2.682,8.188,2.682c6.29,0,9.896-3.19,9.896-14.322
		C147.53,14.122,141.771,12.668,137.877,12.668z M135.175,33.015c-2.374-0.071-3.986-1.15-3.986-1.15V20.428
		c0,0,1.589-0.974,3.54-1.148c2.466-0.221,4.843,0.525,4.843,6.406C139.571,31.892,138.499,33.115,135.175,33.015z"/>
	<path fill="#FFFFFF" d="M62.128,13.421h-5.176c0,0-0.008-6.837-0.008-6.838c0-0.259-0.134-0.388-0.434-0.388h-7.054
		c-0.275,0-0.422,0.12-0.422,0.384v7.068c0,0-3.536,0.853-3.775,0.921c-0.237,0.069-0.413,0.289-0.413,0.551v4.441
		c0,0.32,0.255,0.577,0.571,0.577h3.617c0,0,0,4.644,0,10.685c0,7.936,5.566,8.714,9.323,8.714c1.716,0,3.769-0.551,4.107-0.675
		c0.206-0.076,0.325-0.289,0.325-0.519l0.005-4.886c0-0.318-0.269-0.578-0.571-0.578c-0.302,0-1.074,0.124-1.868,0.124
		c-2.543,0-3.404-1.182-3.404-2.713c0-1.529,0-10.154,0-10.154h5.177c0.316,0,0.571-0.257,0.571-0.577v-5.562
		C62.7,13.678,62.445,13.421,62.128,13.421z"/>
</g>
</svg>
