<?xml version="1.0" encoding="utf-8"?>
<!-- Generator: Adobe Illustrator 16.0.0, SVG Export Plug-In . SVG Version: 6.00 Build 0)  -->
<!DOCTYPE svg PUBLIC "-//W3C//DTD SVG 1.1//EN" "http://www.w3.org/Graphics/SVG/1.1/DTD/svg11.dtd">
<svg version="1.1" id="Layer_1" xmlns="http://www.w3.org/2000/svg" xmlns:xlink="http://www.w3.org/1999/xlink" x="0px" y="0px"
	 width="188px" height="40px" viewBox="0 0 188 40" enable-background="new 0 0 188 40" xml:space="preserve">
<g>
	<path fill="#FFFFFF" d="M2.221,0.5h18.566c-0.001,6.188,0,12.377-0.001,18.565c-6.188,0-12.376,0-18.564,0V0.5L2.221,0.5z"/>
	<path fill="#FFFFFF" d="M22.571,0.611h18.565c0,6.189,0.001,12.377-0.001,18.566c-6.188-0.001-12.376,0-18.563,0
		C22.57,12.989,22.571,6.8,22.571,0.611L22.571,0.611z"/>
	<path fill="#FFFFFF" d="M83.561,7.92c0.81-0.123,1.686,0.154,2.223,0.787c0.628,0.694,0.745,1.798,0.278,2.609
		c-0.515,0.914-1.668,1.339-2.672,1.119c-1.042-0.187-1.911-1.156-1.864-2.237C81.495,9.06,82.446,8.047,83.561,7.92L83.561,7.92z"
		/>
	<path fill="#FFFFFF" d="M52.789,8.417c1.947,0,3.892,0,5.839,0c1.818,4.615,3.648,9.226,5.468,13.842
		c0.465,1.154,0.9,2.32,1.387,3.467c2.338-5.768,4.71-11.521,7.03-17.295c1.872-0.03,3.746-0.007,5.619-0.012
		c-0.004,7.804-0.002,15.609-0.001,23.413c-1.352-0.003-2.702,0.012-4.053-0.008c0.015-5.759-0.001-11.519,0.007-17.279
		c0.002-0.258-0.007-0.518-0.024-0.776c-0.079,0.121-0.149,0.246-0.21,0.375c-2.321,5.896-4.686,11.774-6.993,17.675
		c-0.961,0.034-1.924,0.003-2.886,0.019c-2.394-5.896-4.758-11.804-7.14-17.704c-0.063-0.123-0.13-0.242-0.202-0.357
		c-0.049,2.523-0.008,5.049-0.021,7.572c0.001,3.495-0.002,6.99,0.001,10.484c-1.274,0.004-2.549,0-3.822,0.001
		C52.788,24.028,52.787,16.222,52.789,8.417L52.789,8.417z"/>
	<path fill="#FFFFFF" d="M94.612,15.035c1.938-0.552,4.028-0.529,5.964,0.018c0.398,0.111,0.785,0.267,1.145,0.478
		c-0.021,1.279,0,2.559-0.012,3.839c-1.294-0.989-2.937-1.616-4.583-1.408c-1.307,0.118-2.553,0.796-3.335,1.852
		c-1.005,1.309-1.237,3.047-1.064,4.648c0.129,1.254,0.648,2.507,1.623,3.337c1.011,0.9,2.432,1.219,3.756,1.118
		c1.309-0.15,2.544-0.704,3.603-1.479c0.011,1.213-0.006,2.424,0.009,3.637c-1.642,0.977-3.609,1.229-5.488,1.136
		c-1.922-0.102-3.839-0.83-5.23-2.181c-1.512-1.458-2.333-3.536-2.43-5.618c-0.098-2.164,0.342-4.422,1.588-6.23
		C91.201,16.64,92.833,15.548,94.612,15.035L94.612,15.035z"/>
	<path fill="#FFFFFF" d="M138.473,14.779c1.856-0.327,3.8-0.087,5.558,0.579c0.002,1.231,0,2.461,0.001,3.691
		c-1.229-0.844-2.728-1.298-4.217-1.246c-0.751,0.029-1.576,0.347-1.918,1.061c-0.272,0.706-0.084,1.632,0.582,2.054
		c1.138,0.762,2.497,1.084,3.676,1.768c0.929,0.521,1.83,1.204,2.301,2.188c0.884,1.842,0.51,4.275-1.045,5.649
		c-1.484,1.388-3.622,1.771-5.587,1.697c-1.396-0.09-2.799-0.365-4.082-0.937c0.005-1.295-0.009-2.587,0.007-3.881
		c1.078,0.783,2.324,1.344,3.642,1.571c0.918,0.15,1.916,0.157,2.771-0.254c0.819-0.407,0.965-1.57,0.479-2.281
		c-0.455-0.548-1.123-0.851-1.753-1.147c-1.184-0.532-2.427-0.977-3.466-1.774c-0.73-0.569-1.283-1.372-1.499-2.277
		c-0.321-1.335-0.221-2.839,0.555-4.005C135.363,15.875,136.903,15.06,138.473,14.779L138.473,14.779z"/>
	<path fill="#FFFFFF" d="M110.699,15.308c1.108-0.666,2.517-0.722,3.728-0.314c-0.006,1.339,0,2.678-0.004,4.018
		c-0.792-0.513-1.779-0.732-2.714-0.638c-1.14,0.13-2.043,1.005-2.511,2.008c-0.51,1.063-0.605,2.265-0.572,3.427
		c0,2.674,0.001,5.35,0,8.024c-1.321,0-2.64,0-3.959,0c-0.003-5.591,0.005-11.183-0.003-16.773c1.321-0.017,2.642-0.01,3.964-0.003
		c-0.005,0.96,0,1.92-0.003,2.881C109.054,16.893,109.693,15.878,110.699,15.308L110.699,15.308z"/>
	<path fill="#FFFFFF" d="M81.89,15.056c1.332-0.006,2.664-0.019,3.995,0.007c-0.015,5.589-0.001,11.18-0.007,16.77
		c-1.329,0-2.658,0-3.986,0C81.889,26.241,81.893,20.649,81.89,15.056L81.89,15.056z"/>
	<path fill="#FFFFFF" d="M131.07,18.969c-0.696-1.55-1.954-2.844-3.507-3.545c-1.788-0.814-3.821-0.923-5.748-0.678
		c-2.023,0.255-3.994,1.208-5.279,2.821c-1.172,1.44-1.743,3.291-1.853,5.128c-0.161,2.164,0.2,4.461,1.471,6.269
		c1.083,1.558,2.792,2.629,4.639,3.024c1.544,0.324,3.157,0.325,4.701,0.004c1.806-0.37,3.491-1.37,4.61-2.845
		c1.092-1.387,1.641-3.139,1.765-4.885C131.995,22.473,131.814,20.619,131.07,18.969z M127.192,26.672
		c-0.383,0.863-1.086,1.592-1.972,1.938c-1.038,0.397-2.203,0.421-3.274,0.143c-1.089-0.286-2.013-1.073-2.516-2.076
		c-0.646-1.291-0.744-2.784-0.61-4.2c0.122-1.287,0.57-2.612,1.552-3.501c0.711-0.664,1.681-0.989,2.641-1.042
		c1.207-0.079,2.491,0.262,3.359,1.14c0.928,0.912,1.287,2.235,1.386,3.498C127.829,23.952,127.772,25.392,127.192,26.672z"/>
	<path fill="#FFFFFF" d="M163.228,19.454c-0.617-1.666-1.854-3.107-3.448-3.904c-1.829-0.924-3.957-1.059-5.961-0.81
		c-1.614,0.208-3.203,0.821-4.437,1.904c-1.505,1.297-2.388,3.204-2.647,5.154c-0.248,1.95-0.164,4.004,0.631,5.83
		c0.762,1.79,2.269,3.244,4.079,3.957c1.787,0.704,3.774,0.782,5.655,0.479c1.924-0.318,3.745-1.329,4.937-2.886
		c1.271-1.608,1.819-3.689,1.816-5.716C163.88,22.104,163.71,20.729,163.228,19.454z M159.606,25.144
		c-0.154,0.883-0.46,1.764-1.039,2.462c-0.583,0.703-1.45,1.132-2.346,1.263c-0.96,0.144-1.973,0.075-2.872-0.312
		c-0.97-0.411-1.721-1.25-2.117-2.216c-0.477-1.15-0.571-2.426-0.477-3.656c0.092-1.192,0.43-2.416,1.217-3.342
		c0.718-0.865,1.82-1.344,2.931-1.406c1.134-0.079,2.345,0.183,3.217,0.949c0.804,0.667,1.249,1.666,1.453,2.672
		C159.802,22.736,159.8,23.957,159.606,25.144z"/>
	<path fill="#FFFFFF" d="M182.97,28.934c-0.4-0.006-0.796-0.099-1.155-0.3c-0.572-0.315-0.794-0.991-0.867-1.601
		c-0.121-1.035-0.045-2.079-0.066-3.117c-0.001-1.875,0.004-3.75-0.002-5.624c0.831,0.003,1.662-0.012,2.493-0.01
		c0.499,0.001,0.998,0.008,1.495,0.029V15.05c-1.324,0.004-2.649-0.01-3.973,0.009c-0.029-1.676-0.003-3.352-0.015-5.027
		c-1.324,0.399-2.642,0.824-3.973,1.203c-0.032,1.271-0.002,2.543-0.017,3.814c-1.958-0.001-3.916,0.002-5.874-0.002
		c0.024-1.001-0.069-2.011,0.074-3.006c0.119-0.785,0.574-1.57,1.34-1.874c0.964-0.396,2.043-0.133,2.959,0.271
		c-0.006-1.147,0.009-2.295-0.008-3.441c-1.929-0.531-4.14-0.427-5.852,0.687c-1.104,0.707-1.904,1.837-2.266,3.091
		c-0.425,1.388-0.208,2.854-0.276,4.28c-0.929-0.007-1.856-0.016-2.783,0.005c0.011,1.072,0.006,2.146,0.003,3.217
		c0.931,0.019,1.863-0.003,2.794,0.014c-0.008,4.514-0.002,9.026-0.002,13.54c1.338,0,2.678,0,4.016,0
		c0-4.515-0.001-9.03,0.001-13.544c1.958-0.003,3.917-0.002,5.876-0.001c0.006,2.878-0.006,5.755,0.005,8.633
		c0.018,1.339,0.247,2.772,1.134,3.83c0.769,0.937,1.988,1.365,3.166,1.452c1.24,0.089,2.522-0.063,3.67-0.562v-3.292
		C184.318,28.716,183.637,28.945,182.97,28.934z"/>
	<path fill="#FFFFFF" d="M2.109,21.071c6.188,0.002,12.377-0.001,18.565,0.002c0.001,6.189,0,12.376,0,18.565H2.109V21.071
		L2.109,21.071z"/>
	<path fill="#FFFFFF" d="M22.572,21.073c6.188-0.002,12.376-0.001,18.564-0.001c0,6.189,0,12.377,0,18.566H22.571
		C22.572,33.449,22.57,27.262,22.572,21.073L22.572,21.073z"/>
</g>
</svg>
